<svg viewBox="0 0 1087 382" xmlns="http://www.w3.org/2000/svg" xmlns:xlink="http://www.w3.org/1999/xlink">
 <g fill="#000000">
  <path d="M0 191 l0 -191 543.5 0 543.5 0 0 191 0 191 -543.5 0 -543.5 0 0 -191z m1072 0 l0 -176 -528 0 -528 0 0 176 0 176 528 0 528 0 0 -176z"/>
  <rect width="430" height="190" x="587" y="95"/>
  <path d="M97 193.5 l0 -75.5 14 0 14 0 0 28.5 0 28.5 25.5 0 25.5 0 0 -28.5 0 -28.5 14.5 0 14.5 0 0 75.5 0 75.5 -14.5 0 -14.5 0 0 -33 0 -33 -25.5 0 -25.5 0 0 33 0 33 -14 0 -14 0 0 -75.5z"/>
  <path d="M253 193.5 l0 -75.5 41 0 41 0 0 14 0 14 -27 0 -27 0 0 14 0 14 27 0 27 0 0 13.5 0 13.5 -27 0 -27 0 0 20 0 20 27 0 27 0 0 14 0 14 -41 0 -41 0 0 -75.5z"/>
  <path d="M375 193.5 l0 -75.5 14 0 14 0 0 62 0 62 21 0 21 0 0 13.5 0 13.5 -35 0 -35 0 0 -75.5z"/>
  <path d="M480 193.5 l0 -75.5 16.3 0 c21.3 0 37.8 1.5 45.8 4 11.3 3.6 19.5 11.4 24.2 23.4 2.7 6.8 2.9 24.9 0.4 31.6 -2.9 7.6 -8.5 14.7 -14.9 19 -8.4 5.6 -16.5 7.8 -31.4 8.6 l-12.4 0.7 0 31.9 0 31.8 -14 0 -14 0 0 -75.5z m53.8 -18.5 c7.9 -3.6 10.5 -15.5 5.1 -22.4 -3.7 -4.7 -7.5 -5.9 -19.6 -6.4 l-11.3 -0.5 0 15.7 0 15.6 10.8 0 c8.4 0 11.6 -0.5 15 -2z"/>
 </g>
 <g fill="#00a7b4">
  <path d="M579 189 l0 -130 234 0 234 0 0 130 0 130 -234 0 -234 0 0 -130z m166.9 82.5 c13.8 -3.3 26.4 -13.5 32.2 -26 4.4 -9.5 4.9 -17.2 4.9 -74.6 l0 -52.9 -14.4 0 -14.5 0 -0.3 55.3 -0.3 55.2 -2.5 5 c-1.4 2.8 -4 6 -5.9 7.3 -10.5 6.9 -25.5 4.6 -31.8 -5 l-2.8 -4.2 -0.3 -56.8 -0.3 -56.8 -14.9 0 -15 0 0 45.3 c0 64.3 1.3 77.3 9.1 89.1 5.7 8.5 17.4 16.3 28.7 19 7.6 1.9 20.3 1.9 28.1 0.1z m-108.9 -78 l0 -75.5 -14.5 0 -14.5 0 0 75.5 0 75.5 14.5 0 14.5 0 0 -75.5z m209 74.8 c0 -0.5 3.6 -21.5 8 -46.8 4.4 -25.3 8 -46.2 8.1 -46.5 0 -0.3 7.1 20.7 15.8 46.5 l15.8 47 12.9 0.3 12.9 0.3 15.5 -46.5 c8.5 -25.6 15.8 -46.2 16.1 -45.8 0.5 0.5 15.9 89.2 15.9 91.6 0 0.3 6.3 0.6 14 0.6 10.5 0 14 -0.3 14 -1.2 0 -1.4 -23.6 -142.4 -24.6 -147.1 l-0.6 -2.8 -14 0.3 -14 0.3 -17.4 51.4 c-9.6 28.3 -17.6 51.6 -17.8 51.8 -0.2 0.2 -8.1 -23 -17.5 -51.7 l-17.2 -52 -14.2 0 -14.3 0 -9.8 56.8 c-5.4 31.2 -11.2 65.1 -13 75.5 l-3.3 18.7 14.3 0 c7.9 0 14.4 -0.3 14.4 -0.7z"/>
 </g>
</svg>
